/* XPM */
static const char *jump_to_end_xpm[] = {
/* width height ncolors chars_per_pixel */
"9 9 7 1",
/* colors */
"A c None",
"B c #DEDEDEDEDEDE",
"C c #BDBDBDBDBDBD",
"D c #B5B5B5B5B5B5",
"E c #ADADADADADAD",
"F c #A5A5A5A5A5A5",
"G c #000000000000",
/* pixels */
"AAAAAAAAA",
"AGEAAAGCA",
"AGGFAAGDA",
"AGGGFAGCA",
"AGGGGBGCA",
"AGGGEAGDA",
"AGGDAAGCA",
"AGCAAAGCA",
"AAAAAAAAA"};
