/* XPM */
static const char *pi01[] = {
/* width height ncolors chars_per_pixel */
"12 12 23 1",
/* colors */
"A s bg c None",
"B c #F8F8F8F8F8F8",
"C c #F0F0F0F0F0F0",
"D c #E8E8E8E8E8E8",
"E c #E0E0E0E0E0E0",
"F c #D8D8D8D8D8D8",
"G c #D0D0D0D0D0D0",
"H c #C8C8C8C8C8C8",
"I c #C0C0C0C0C0C0",
"J c #B8B8B8B8B8B8",
"K c #B0B0B0B0B0B0",
"L c #A8A8A8A8A8A8",
"M c #A0A0A0A0A0A0",
"N c #989898989898",
"O c #909090909090",
"P c #888888888888",
"Q c #707070707070",
"R c #686868686868",
"S c #585858585858",
"T c #505050505050",
"U c #383838383838",
"V c #303030303030",
"W c #181818181818",
/* pixels */
"AALMATKCVFAA",
"CABSFTLQRACA",
"FMDGNGHSCNWA",
"AGOCAAAAPUGA",
"CCDCAAAAHEFE",
"IIHAAAAADRRP",
"AADCAAAAHCAA",
"BGGABAABEOJA",
"DDAFEECJCCJA",
"AACGBFDDIAAA",
"AADBAGCAECAA",
"AAAAACBAAAAA"};
