/* XPM */
static const char *pi03[] = {
/* width height ncolors chars_per_pixel */
"12 12 20 1",
/* colors */
"A s bg c None",
"B c #F8F8F8F8F8F8",
"C c #F0F0F0F0F0F0",
"D c #E8E8E8E8E8E8",
"E c #E0E0E0E0E0E0",
"F c #D8D8D8D8D8D8",
"G c #D0D0D0D0D0D0",
"H c #C8C8C8C8C8C8",
"I c #C0C0C0C0C0C0",
"J c #B8B8B8B8B8B8",
"K c #B0B0B0B0B0B0",
"L c #989898989898",
"M c #888888888888",
"N c #808080808080",
"O c #787878787878",
"P c #707070707070",
"Q c #585858585858",
"R c #404040404040",
"S c #383838383838",
"T c #000000000000",
/* pixels */
"AAAHBAMADMBA",
"AAAEIAMAPJAA",
"AFDAHDIHOALQ",
"ABGGAAAAARRE",
"AAADAAAAAKAA",
"EHHDAAAAANTT",
"AAADAAAAAKAA",
"ABGGAAAAARSF",
"AFDAHDIHOALQ",
"AAAEIAMAPJAA",
"AAAGCAMADMBA",
"AAAAAAIAAAAA"};
