/* XPM */
static char *pi04[] = {
/* width height ncolors chars_per_pixel */
"12 12 24 1",
/* colors */
"A s bg c None",
"B c #F8F8F8F8F8F8",
"C c #F0F0F0F0F0F0",
"D c #E8E8E8E8E8E8",
"E c #E0E0E0E0E0E0",
"F c #D8D8D8D8D8D8",
"G c #D0D0D0D0D0D0",
"H c #C8C8C8C8C8C8",
"I c #C0C0C0C0C0C0",
"J c #B8B8B8B8B8B8",
"K c #B0B0B0B0B0B0",
"L c #A8A8A8A8A8A8",
"M c #A0A0A0A0A0A0",
"N c #989898989898",
"O c #909090909090",
"P c #888888888888",
"Q c #808080808080",
"R c #707070707070",
"S c #686868686868",
"T c #585858585858",
"U c #505050505050",
"V c #383838383838",
"W c #303030303030",
"X c #181818181818",
/* pixels */
"AAADBAICAFCA",
"AAADGAICGMAA",
"ADBAHDHCODBL",
"ABHEBBACCGTN",
"AAAEBAAAANEA",
"CGGEAAAAAHUU",
"BCDCBAAAAGLK",
"AADJAAAAATRC",
"AEICEHDHPCSW",
"ACABPCSEVNAF",
"AAAKIASFGXCA",
"AAAAAAQDAAAA"};
