/* XPM */
static char *pi07[] = {
/* width height ncolors chars_per_pixel */
"12 12 24 1",
/* colors */
"A s bg c None",
"B c #F8F8F8F8F8F8",
"C c #F0F0F0F0F0F0",
"D c #E8E8E8E8E8E8",
"E c #E0E0E0E0E0E0",
"F c #D8D8D8D8D8D8",
"G c #D0D0D0D0D0D0",
"H c #C8C8C8C8C8C8",
"I c #C0C0C0C0C0C0",
"J c #B8B8B8B8B8B8",
"K c #B0B0B0B0B0B0",
"L c #A8A8A8A8A8A8",
"M c #A0A0A0A0A0A0",
"N c #989898989898",
"O c #909090909090",
"P c #888888888888",
"Q c #808080808080",
"R c #707070707070",
"S c #686868686868",
"T c #606060606060",
"U c #585858585858",
"V c #505050505050",
"W c #383838383838",
"X c #101010101010",
/* pixels */
"AAAAABCAAAAA",
"AACEADFACDAA",
"AAAIECGAGCAA",
"AJCCJCEEEADD",
"AJOEABABBGGB",
"AACHAAAACDAA",
"QSSDAAAAAHII",
"DEEHAAAACCCC",
"AHWPAAAACOGA",
"AXMCUHHNGDMF",
"ABATRKVEUCAC",
"AAGWCKVAMLAA"};
