/* XPM */
static char *pi10[] = {
/* width height ncolors chars_per_pixel */
"12 12 23 1",
/* colors */
"A s bg c None",
"B c #F8F8F8F8F8F8",
"C c #F0F0F0F0F0F0",
"D c #E8E8E8E8E8E8",
"E c #E0E0E0E0E0E0",
"F c #D8D8D8D8D8D8",
"G c #D0D0D0D0D0D0",
"H c #C8C8C8C8C8C8",
"I c #C0C0C0C0C0C0",
"J c #B8B8B8B8B8B8",
"K c #B0B0B0B0B0B0",
"L c #A8A8A8A8A8A8",
"M c #A0A0A0A0A0A0",
"N c #909090909090",
"O c #888888888888",
"P c #707070707070",
"Q c #686868686868",
"R c #606060606060",
"S c #585858585858",
"T c #505050505050",
"U c #383838383838",
"V c #303030303030",
"W c #101010101010",
/* pixels */
"AAAAEOAAAAAA",
"ABWHEQAJJAAA",
"FAMUEQDNBACA",
"VRCOHDGEDIEA",
"CPSAAAABIEAA",
"KKHAAAAADCDB",
"TTHAAAAAEGFC",
"AFMAAAABEAAA",
"MSHCCACAEHCA",
"LBDNDGDHABDA",
"AAMGCIAGDAAA",
"ACFACIABDAAA"};
