/* XPM */
static const char *pi11[] = {
/* width height ncolors chars_per_pixel */
"12 12 19 1",
/* colors */
"A s bg c None",
"B c #F8F8F8F8F8F8",
"C c #F0F0F0F0F0F0",
"D c #E8E8E8E8E8E8",
"E c #E0E0E0E0E0E0",
"F c #D8D8D8D8D8D8",
"G c #D0D0D0D0D0D0",
"H c #C8C8C8C8C8C8",
"I c #C0C0C0C0C0C0",
"J c #B8B8B8B8B8B8",
"K c #B0B0B0B0B0B0",
"L c #989898989898",
"M c #909090909090",
"N c #808080808080",
"O c #707070707070",
"P c #505050505050",
"Q c #383838383838",
"R c #282828282828",
"S c #181818181818",
/* pixels */
"AEKAGRACIAAA",
"AAQLHQAOJAAA",
"NCFSGPIOADGA",
"NSJFEAFBKMDA",
"AGOAAAACIBAA",
"NNFAAAAAFHHC",
"HHEAAAAADDDC",
"BJKAAAABHDAA",
"LJBFCBDCCGEA",
"CAEHCHCGBACA",
"ABJCCGAEEAAA",
"AAAABGAAAAAA"};
