/* XPM */
static const char *play_forward_xpm[] = {
/* width height ncolors chars_per_pixel */
"9 9 12 1",
/* colors */
"A c None",
"B c #DEDEDEDEDEDE",
"C c #CECECECECECE",
"D c #BDBDBDBDBDBD",
"E c #ADADADADADAD",
"F c #9C9C9C9C9C9C",
"G c #6B6B6B6B6B6B",
"H c #5A5A5A5A5A5A",
"I c #525252525252",
"J c #424242424242",
"K c #212121212121",
"L c #000000000000",
/* pixels */
"AAAAAAAAA",
"ALICAAAAA",
"ALLKFAAAA",
"ALLLLGDAA",
"ALLLLLJBA",
"ALLLLGCAA",
"ALLKEAAAA",
"ALHBAAAAA",
"AAAAAAAAA"};
