/* XPM */
static char *rotate_y_xpm[] = {
/* width height ncolors chars_per_pixel */
"18 18 26 1",
/* colors */
"A c None",
"B c #EFEFEFEFEFEF",
"C c #E7E7E7E7E7E7",
"D c #DEDEDEDEDEDE",
"E c #D6D6D6D6D6D6",
"F c #CECECECECECE",
"G c #C6C6C6C6C6C6",
"H c #BDBDBDBDBDBD",
"I c #B5B5B5B5B5B5",
"J c #ADADADADADAD",
"K c #9C9C9C9C9C9C",
"L c #949494949494",
"M c #737373737373",
"N c #6B6B6B6B6B6B",
"O c #636363636363",
"P c #5A5A5A5A5A5A",
"Q c #525252525252",
"R c #4A4A4A4A4A4A",
"S c #424242424242",
"T c #393939393939",
"U c #313131313131",
"V c #292929292929",
"W c #212121212121",
"X c #181818181818",
"Y c #080808080808",
"Z c #000000000000",
/* pixels */
"AAAAAAAAOAAAAAAAAA",
"AAAAAAAAVAAAAAAAAA",
"AAAAAAAAVAAAAAAAAA",
"AAAAAAAAUAAAAAAAAA",
"AAAAAAAAVAAAAAAAAA",
"AAAAAAAAVAAAACHCAA",
"AAABHLEAVBMTXYIAAA",
"ACPYTMFAUABOZYYQDA",
"IWLCAAAAVAAAGOHLWJ",
"RIAAAAAAPAAAAABAHR",
"LWGAAAAAAAAAAAAGWL",
"AJSTNKIGEFGHKMUSJA",
"AAACKNRUWVUSOKCAAA",
"AAAAAAAALAAAAAAAAA",
"AAAAAAAAVAAAAAAAAA",
"AAAAAAAAVAAAAAAAAA",
"AAAAAAAAUAAAAAAAAA",
"AAAAAAAALAAAAAAAAA"};
