/* XPM */
static const char *rotate_bond_xpm[] = {
/* width height ncolors chars_per_pixel */
"18 18 30 2",
/* colors */
"AA c None",
"BA c #F7F7F7F7F7F7",
"CA c #EFEFEFEFEFEF",
"DA c #E7E7E7E7E7E7",
"EA c #DEDEDEDEDEDE",
"FA c #D6D6D6D6D6D6",
"GA c #CECECECECECE",
"HA c #C6C6C6C6C6C6",
"IA c #B5B5B5B5B5B5",
"JA c #ADADADADADAD",
"KA c #A5A5A5A5A5A5",
"LA c #9C9C9C9C9C9C",
"MA c #949494949494",
"NA c #8C8C8C8C8C8C",
"OA c #848484848484",
"PA c #7B7B7B7B7B7B",
"AB c #737373737373",
"BB c #6B6B6B6B6B6B",
"CB c #636363636363",
"DB c #5A5A5A5A5A5A",
"EB c #525252525252",
"FB c #4A4A4A4A4A4A",
"GB c #424242424242",
"HB c #393939393939",
"IB c #313131313131",
"JB c #292929292929",
"KB c #212121212121",
"LB c #181818181818",
"MB c #080808080808",
"NB c #000000000000",
/* pixels */
"AAAAAAAAAAAAAAAAAAAAAADAAAAAAAAAAAAA",
"AAAAAAAAAAAAAAAAAAAACAOAAAAACAAAAAAA",
"AAAAAAAAAAAAAAAAAADAIBIBGBLBKBHBBAAA",
"AAAAAAAAAAAAAAAAAAEBNBNBBBAAAAFBJAAA",
"AAAAAAAAAAAAAABAJACBOAOANAHAAAHBGAAA",
"AAAAAAAAAACAEBNBMBNBJBGAAAAAFAKBAAAA",
"AAAAAAAAHALBPAEAAADALAKBMABAIBMAAAAA",
"AAAAAAAAHBLAAAAAAAAAAAFADBOAIBBAAAAA",
"AAAAAADAKBAAAAAAAAAAAAAAKAJBEAAAAAAA",
"AAAABAGAHBAAAAAAAAAAAAMAKBFAAAAAAAAA",
"AACAKBCALBDAAAAAAAAAMALBGAGAAAAAAAAA",
"AAGBPAAAPAHBEAAABABBJBKAEBBAAAAAAAAA",
"IALBCAAAAAABGBBADBGBDAFBMBHAAAAAAAAA",
"BBOAAAAAAAAAJAKBCBBAGABAJAKBJAAAAAAA",
"FBIAAAAAHAGBKBIAAAAAAAAAAAHAMBLAAAAA",
"NAKBEBJBIBMACAAAAAAAAAAAAAAAFAJBOABA",
"AAFAIAEAAAAAAAAAAAAAAAAAAAAAAADAJBPA",
"AAAAAAAAAAAAAAAAAAAAAAAAAAAAAAAACAEA"};
