/* XPM */
static char *rotate_x_xpm[] = {
/* width height ncolors chars_per_pixel */
"18 18 29 2",
/* colors */
"AA c None",
"BA c #F7F7F7F7F7F7",
"CA c #EFEFEFEFEFEF",
"DA c #DEDEDEDEDEDE",
"EA c #D6D6D6D6D6D6",
"FA c #CECECECECECE",
"GA c #C6C6C6C6C6C6",
"HA c #BDBDBDBDBDBD",
"IA c #B5B5B5B5B5B5",
"JA c #ADADADADADAD",
"KA c #A5A5A5A5A5A5",
"LA c #949494949494",
"MA c #8C8C8C8C8C8C",
"NA c #848484848484",
"OA c #7B7B7B7B7B7B",
"PA c #737373737373",
"AB c #6B6B6B6B6B6B",
"BB c #5A5A5A5A5A5A",
"CB c #525252525252",
"DB c #4A4A4A4A4A4A",
"EB c #424242424242",
"FB c #393939393939",
"GB c #313131313131",
"HB c #292929292929",
"IB c #212121212121",
"JB c #181818181818",
"KB c #101010101010",
"LB c #080808080808",
"MB c #000000000000",
/* pixels */
"AAAAAAAAAAAAAAAAHADBLAAAAAAAAAAAAAAA",
"AAAAAAAAAAAAAACAIBIAIBJAAAAAAAAAAAAA",
"AAAAAAAAAAAAAAPAOAAAGAEBAAAAAAAAAAAA",
"AAAAAAAAAAAAAAKBEAAAAAHBCAAAAAAAAAAA",
"AAAAAAAAAAAAFAJBAAAAAAABKAAAAAAAAAAA",
"AAAAAAAAAAAAJACBAAAAAAMAPAAAAAAAAAAA",
"AAAAAAAAAAAADAGAAAAAAAJACBAAAAAAAAAA",
"AAAAAAAAAAAAAAAAAAAAAAHAFBAAAAAAAAAA",
"LAGBGBGBGBGBGBGBGBCBAAFAHBMAGBGBGBIA",
"AAAAAAAAAABACAAAAAAAAAGAHBAAAAAAAAAA",
"AAAAAAAAAAAAOAFAAAAAAAHAEBAAAAAAAAAA",
"AAAAAAAAAAAADBFBBAAAAAIADBAAAAAAAAAA",
"AAAAAAAAAAAAIBMBKAAAAALAABAAAAAAAAAA",
"AAAAAAAAAACAIBLBBBBAAAABKAAAAAAAAAAA",
"AAAAAAAAAAHADAKBFACAAAGBCABAAAAAAAAA",
"AAAAAAAAAABAAAABNAAAGAFBAAAAAAAAAAAA",
"AAAAAAAAAAAAAACAIBHAIBJAAAAAAAAAAAAA",
"AAAAAAAAAAAAAAAAIAEBLAAAAAAAAAAAAAAA"};
