/* XPM */
static const char *stop_mini_grey[] = {
/* width height ncolors chars_per_pixel */
"12 12 71 2",
/* colors */
"AA s bg c None",
"BA c #FDFDFDFDFDFD",
"CA c #FCFCFCFCFCFC",
"DA c #F7F7F7F7F7F7",
"EA c #F4F4F4F4F4F4",
"FA c #F3F3F3F3F3F3",
"GA c #F1F1F1F1F1F1",
"HA c #EFEFEFEFEFEF",
"IA c #EEEEEEEEEEEE",
"JA c #EDEDEDEDEDED",
"KA c #ECECECECECEC",
"LA c #EBEBEBEBEBEB",
"MA c #EAEAEAEAEAEA",
"NA c #E8E8E8E8E8E8",
"OA c #E7E7E7E7E7E7",
"PA c #E5E5E5E5E5E5",
"AB c #E3E3E3E3E3E3",
"BB c #E2E2E2E2E2E2",
"CB c #E1E1E1E1E1E1",
"DB c #E0E0E0E0E0E0",
"EB c #DCDCDCDCDCDC",
"FB c #DBDBDBDBDBDB",
"GB c #DADADADADADA",
"HB c #D8D8D8D8D8D8",
"IB c #D7D7D7D7D7D7",
"JB c #D5D5D5D5D5D5",
"KB c #D3D3D3D3D3D3",
"LB c #D1D1D1D1D1D1",
"MB c #D0D0D0D0D0D0",
"NB c #CFCFCFCFCFCF",
"OB c #CECECECECECE",
"PB c #CDCDCDCDCDCD",
"AC c #CACACACACACA",
"BC c #C8C8C8C8C8C8",
"CC c #C7C7C7C7C7C7",
"DC c #C5C5C5C5C5C5",
"EC c #C4C4C4C4C4C4",
"FC c #C3C3C3C3C3C3",
"GC c #C1C1C1C1C1C1",
"HC c #C0C0C0C0C0C0",
"IC c #BEBEBEBEBEBE",
"JC c #BCBCBCBCBCBC",
"KC c #BBBBBBBBBBBB",
"LC c #BABABABABABA",
"MC c #B8B8B8B8B8B8",
"NC c #B7B7B7B7B7B7",
"OC c #B5B5B5B5B5B5",
"PC c #B1B1B1B1B1B1",
"AD c #B0B0B0B0B0B0",
"BD c #AFAFAFAFAFAF",
"CD c #AEAEAEAEAEAE",
"DD c #ACACACACACAC",
"ED c #ABABABABABAB",
"FD c #AAAAAAAAAAAA",
"GD c #A9A9A9A9A9A9",
"HD c #A8A8A8A8A8A8",
"ID c #A6A6A6A6A6A6",
"JD c #A3A3A3A3A3A3",
"KD c #A2A2A2A2A2A2",
"LD c #A0A0A0A0A0A0",
"MD c #9F9F9F9F9F9F",
"ND c #9D9D9D9D9D9D",
"OD c #989898989898",
"PD c #959595959595",
"AE c #949494949494",
"BE c #939393939393",
"CE c #909090909090",
"DE c #8E8E8E8E8E8E",
"EE c #8A8A8A8A8A8A",
"FE c #888888888888",
"GE c #878787878787",
/* pixels */
"AAAAAAKANAOADBABJAAAAAAA",
"AACAMAKBOBACACACJBLABAAA",
"AABBMBNBCCDCDCBCACFCOAAA",
"HABCJBPAMBGCDCJBFBICECEA",
"KBJCHCBBJANBIBJAHBMCOCCB",
"FCNCOCKCNAGAEAEBOCBDCDLB",
"LCADADPCPBFAFAHCEDHDJDCC",
"FCFDDDDCIAIBABMAKCLDNDJB",
"FBHDNCMAMBLDJDFBPAHDMDNA",
"AAPCKDOCODPDDEPDHCKDCCAA",
"AAHADDBECEGEGEFEEEOCDAAA",
"AAAAAAPBIDDEAEGDGBAAAAAA"};
