/* XPM */
static char *stop_mini[] = {
/* width height ncolors chars_per_pixel */
"12 12 34 2",
/* colors */
"AA s bg c None",
"BA c #F8F8E8E8E8E8",
"CA c #F8F8E0E0D8D8",
"DA c #F8F8D8D8C8C8",
"EA c #F8F8D0D0B8B8",
"FA c #F8F8C8C8B8B8",
"GA c #F8F8C8C8A8A8",
"HA c #F8F8B8B89898",
"IA c #F8F8B0B08888",
"JA c #F8F8A8A88080",
"KA c #F8F8A8A87878",
"LA c #F8F898987070",
"MA c #F8F898986868",
"NA c #F8F888886060",
"OA c #F0F0F0F0C0C0",
"PA c #F0F0E8E8C0C0",
"AB c #F0F0E8E8B8B8",
"BB c #F0F0D0D0A8A8",
"CB c #F0F0C8C89898",
"DB c #F0F0B8B8A0A0",
"EB c #F0F0A8A89090",
"FB c #F0F088885858",
"GB c #F0F078785050",
"HB c #F0F078784848",
"IB c #E8E888886060",
"JB c #E8E878785858",
"KB c #E8E868683838",
"LB c #E8E858583030",
"MB c #E0E058582828",
"NB c #E0E050501818",
"OB c #E0E048482020",
"PB c #E0E048481010",
"AC c #E0E040400808",
"BC c #E0E038380000",
/* pixels */
"AAAAAADADAEAGAEADAAAAAAA",
"AAAADAIAKAKAKAKAIADAAAAA",
"AAGAIAIAKAMAKAKAKAMADAAA",
"CAKAIAEAIAMAMAIAGAMAMABA",
"HAMAMABBABIACBPAHAFBFBFA",
"LAGBFBMAABOAOAGAFBGBHBHA",
"NAFBHBGBEBOAOALAHBHBKBJA",
"LAHBHBJAABCBEAPANAKBLBDB",
"FAHBNAEAHAKBKBCBEAHBKBCA",
"AAJBKBNAMBMBPBMBLAKBJAAA",
"AACAJBNBPBBCACBCPBIBAAAA",
"AAAAAAEBGBOBOBJBFAAAAAAA"};
