/* XPM */
static char *stop_mini_dark[] = {
/* width height ncolors chars_per_pixel */
"12 12 42 2",
/* colors */
"AA s bg c None",
"BA c #E0E0D8D8D8D8",
"CA c #E0E0C8C8C0C0",
"DA c #E0E0C8C8B8B8",
"EA c #E0E0B8B8A8A8",
"FA c #E0E0B0B09898",
"GA c #E0E0A8A88888",
"HA c #E0E0A0A07878",
"IA c #E0E098987070",
"JA c #E0E090906060",
"KA c #E0E078783838",
"LA c #E0E070704040",
"MA c #E0E068682828",
"NA c #E0E068681818",
"OA c #E0E058581818",
"PA c #E0E050500808",
"AB c #E0E048480808",
"BB c #D8D8D8D89090",
"CB c #D8D8D0D08888",
"DB c #D8D8C8C87878",
"EB c #D8D8B8B8B0B0",
"FB c #D8D8B8B87878",
"GB c #D8D8A8A89898",
"HB c #D8D8A8A86868",
"IB c #D8D890905858",
"JB c #D8D888886868",
"KB c #D8D888885050",
"LB c #D8D880807070",
"MB c #D8D878783838",
"NB c #D8D838380000",
"OB c #D8D828280000",
"PB c #D0D068684040",
"AC c #D0D068683030",
"BC c #D0D050501818",
"CC c #D0D018180000",
"DC c #D0D008080000",
"EC c #C8C858582828",
"FC c #C8C840401010",
"GC c #C8C828280000",
"HC c #C8C810100000",
"IC c #C8C808080000",
"JC c #B8B800000000",
/* pixels */
"AAAAAAFAGAHAJAHAFAAAAAAA",
"AABAGAKANAOANAPAKAFABAAA",
"AAJAKAMAPAPAPAOANAABGAAA",
"EANAKAHAKAABPALAKBABOADA",
"LAABABHADBMALACBLAABCCIA",
"OAOBOBABHACBBBKBABCCCCLA",
"OBCCCCOBKACBBBABDCDCDCAC",
"BCDCCCBCCBLAHAFBNBDCICJB",
"IADCOBDBMBICICIBHBICICGB",
"AAOBJCOBJCICJCJCFCICECAA",
"AAEBHCJCICJCJCJCJCGCCAAA",
"AAAAAAPBJCJCJCHCLBAAAAAA"};
